<svg width="46" height="46" viewBox="0 0 46 46" fill="none" xmlns="http://www.w3.org/2000/svg">
<rect y="0.078125" width="45.8438" height="45.8438" rx="7.875" fill="white"/>
<path d="M25.3699 25.2447L24.2089 19.0482C24.1459 18.7242 24.0739 18.3417 23.9929 17.9007C23.9119 17.4597 23.8354 16.9827 23.7634 16.4697C23.5654 16.9827 23.3719 17.4597 23.1829 17.9007C22.9939 18.3417 22.8274 18.7287 22.6834 19.0617L20.0239 25.2447H25.3699ZM30.7969 32.6562H27.7729C27.4309 32.6562 27.1654 32.5752 26.9764 32.4132C26.7874 32.2512 26.6569 32.0397 26.5849 31.7787L25.8694 27.9582H18.8629L17.2159 31.7787C17.0989 32.0127 16.9189 32.2197 16.6759 32.3997C16.4329 32.5707 16.1539 32.6562 15.8389 32.6562H12.7609L22.1839 13.0677H26.1799L30.7969 32.6562Z" fill="#037EF2"/>
</svg>
